<svg xmlns="http://www.w3.org/2000/svg" width="1600" height="900" viewBox="0 0 1600 900" fill="none">
  <defs>
    <linearGradient id="bg" x1="0" y1="0" x2="1600" y2="900" gradientUnits="userSpaceOnUse">
      <stop stop-color="#080F1E"/>
      <stop offset="1" stop-color="#102A3E"/>
    </linearGradient>
    <linearGradient id="accent" x1="210" y1="130" x2="1350" y2="780" gradientUnits="userSpaceOnUse">
      <stop stop-color="#00E5C0" stop-opacity=".30"/>
      <stop offset="1" stop-color="#00C8FF" stop-opacity=".18"/>
    </linearGradient>
  </defs>
  <rect width="1600" height="900" rx="40" fill="url(#bg)"/>
  <g opacity=".24">
    <path d="M0 90H1600" stroke="#1E5D78"/>
    <path d="M0 180H1600" stroke="#1E5D78"/>
    <path d="M0 270H1600" stroke="#1E5D78"/>
    <path d="M0 360H1600" stroke="#1E5D78"/>
    <path d="M0 450H1600" stroke="#1E5D78"/>
    <path d="M0 540H1600" stroke="#1E5D78"/>
    <path d="M0 630H1600" stroke="#1E5D78"/>
    <path d="M0 720H1600" stroke="#1E5D78"/>
    <path d="M0 810H1600" stroke="#1E5D78"/>
    <path d="M160 0V900" stroke="#1E5D78"/>
    <path d="M320 0V900" stroke="#1E5D78"/>
    <path d="M480 0V900" stroke="#1E5D78"/>
    <path d="M640 0V900" stroke="#1E5D78"/>
    <path d="M800 0V900" stroke="#1E5D78"/>
    <path d="M960 0V900" stroke="#1E5D78"/>
    <path d="M1120 0V900" stroke="#1E5D78"/>
    <path d="M1280 0V900" stroke="#1E5D78"/>
    <path d="M1440 0V900" stroke="#1E5D78"/>
  </g>
  <rect x="88" y="88" width="1424" height="724" rx="32" fill="#0C1728" stroke="#1F5D78"/>
  <rect x="88" y="88" width="1424" height="724" rx="32" fill="url(#accent)"/>
  <rect x="134" y="136" width="240" height="56" rx="10" stroke="#00E5C0"/>
  <text x="160" y="172" fill="#00E5C0" font-family="Courier New, monospace" font-size="28" font-weight="700" letter-spacing="6">DAY 2</text>
  <text x="134" y="292" fill="#E7F4FF" font-family="Courier New, monospace" font-size="68" font-weight="700">Access Control</text>
  <text x="134" y="372" fill="#8FB0CC" font-family="Courier New, monospace" font-size="34">Demo walkthrough preview</text>
  <circle cx="800" cy="520" r="96" fill="#0A1321" stroke="#00E5C0" stroke-width="8"/>
  <path d="M770 462L868 520L770 578V462Z" fill="#00E5C0"/>
  <text x="134" y="700" fill="#00E5C0" font-family="Courier New, monospace" font-size="30" font-weight="700">Access Control Demo Video</text>
  <text x="134" y="748" fill="#8FB0CC" font-family="Courier New, monospace" font-size="28">IDOR and admin-page bypass walkthrough</text>
</svg>
